<svg t="1770173675522" class="icon" viewBox="0 0 1024 1024" version="1.1" xmlns="http://www.w3.org/2000/svg" p-id="8288" width="256" height="256"><path d="M545 576c17.7 0 32-14.3 32-32V32c0-17.7-14.3-32-32-32s-32 14.3-32 32v512c0 17.6 14.3 32 32 32z" p-id="8289" fill="#515151"></path><path d="M937.4 268.8c-27.3-38.9-60.1-73.6-97.6-102.9a480.76 480.76 0 0 0-124.3-70.4c-16.5-6.3-35 1.9-41.3 18.5-6.3 16.5 2 35 18.5 41.3 160 61.2 267.4 217.4 267.4 388.7 0 229.4-186.6 416-416 416s-416-186.6-416-416c0-171.3 107.5-327.5 267.4-388.7C412 149 420.3 130.5 414 114c-6.3-16.5-24.8-24.8-41.3-18.5-44.7 17.1-86.5 40.8-124.3 70.4-37.5 29.3-70.3 64-97.6 102.9C94 349.7 64 444.9 64 544c0 64.8 12.7 127.6 37.7 186.8 24.2 57.2 58.8 108.5 102.9 152.6 44.1 44.1 95.4 78.7 152.6 102.9 59.2 25 122.1 37.7 186.8 37.7 64.8 0 127.7-12.7 186.8-37.7 57.2-24.2 108.5-58.8 152.6-102.9 44.1-44.1 78.7-95.4 102.9-152.6 25-59.2 37.7-122.1 37.7-186.8 0-99.1-30-194.3-86.6-275.2z" p-id="8290" fill="#515151"></path></svg>