<svg t="1770302650822" class="icon" viewBox="0 0 1024 1024" version="1.1" xmlns="http://www.w3.org/2000/svg" p-id="9594" width="256" height="256"><path d="M128 245.333333A117.333333 117.333333 0 0 1 245.333333 128h425.130667a138.666667 138.666667 0 0 1 98.090667 40.618667l86.826666 86.826666c26.026667 26.026667 40.618667 61.312 40.618667 98.090667v425.130667A117.333333 117.333333 0 0 1 778.666667 896H245.333333A117.333333 117.333333 0 0 1 128 778.666667V245.333333zM245.333333 192c-29.44 0-53.333333 23.893333-53.333333 53.333333v533.333334c0 29.44 23.893333 53.333333 53.333333 53.333333H256v-224A96 96 0 0 1 352 512h320A96 96 0 0 1 768 608v224h10.666667c29.44 0 53.333333-23.893333 53.333333-53.333333V353.536c0-19.84-7.850667-38.826667-21.888-52.821333l-86.826667-86.826667a74.666667 74.666667 0 0 0-40.618666-20.906667V309.333333a96 96 0 0 1-96 96h-192A96 96 0 0 1 298.666667 309.333333V192H245.333333z m458.666667 640v-224a32 32 0 0 0-32-32h-320a32 32 0 0 0-32 32v224h384z m-341.333333-640v117.333333c0 17.664 14.336 32 32 32h192a32 32 0 0 0 32-32V192h-256z" p-id="9595" fill="#515151"></path></svg>